<?xml version="1.0" encoding="utf-8"?>
<!-- Generator: Adobe Illustrator 24.1.1, SVG Export Plug-In . SVG Version: 6.00 Build 0)  -->
<svg version="1.1" id="Layer_1" xmlns="http://www.w3.org/2000/svg" xmlns:xlink="http://www.w3.org/1999/xlink" x="0px" y="0px"
	 viewBox="0 0 48.8 36.5" style="enable-background:new 0 0 48.8 36.5;" xml:space="preserve">
<style type="text/css">
	.st0{fill:none;stroke:#1D1D1B;stroke-width:1.69;stroke-miterlimit:10;}
	.st1{fill:none;stroke:#1D1D1B;stroke-width:1.3;stroke-miterlimit:10;}
</style>
<g id="Layer_2_1_">
	<g id="Layer_1-2">
		<g id="Layer_2-2">
			<g id="Layer_1-2-2">
				<path class="st0" d="M17.4,25.5H16c-0.4,0-0.8-0.3-0.8-0.8c0,0,0,0,0,0L14.8,9.1c11,2.2,24.3,2.6,32.1-0.5
					C39.8,38.5,49.3,15.3,17.4,25.5z"/>
				<path class="st1" d="M14.6,26.4l0.2-0.1c0.9-0.3,1.8-0.6,2.7-0.9"/>
				<path class="st0" d="M14.8,9.1l-1.8-0.4C8.6,7.9,4.4,6.4,0.6,4.3c5.7-6.9,10-2.7,12.4,4.5c1.8,5.7,2.4,11.7,1.8,17.6
					c-0.2,1.8-0.6,3.5-1.3,5.1l0,0c0,0.1-0.1,0.2-0.1,0.2c0-0.1,0.1-0.2,0.1-0.2l0,0c2.3-3.9,22.4-3.5,28.8-3.5"/>
				
					<ellipse transform="matrix(0.9997 -2.460666e-02 2.460666e-02 0.9997 -0.7805 1.034)" class="st1" cx="41.6" cy="32.2" rx="2.8" ry="2.9"/>
				
					<ellipse transform="matrix(0.9997 -2.460666e-02 2.460666e-02 0.9997 -0.8038 0.4016)" class="st1" cx="15.9" cy="32.9" rx="2.9" ry="2.9"/>
			</g>
		</g>
	</g>
</g>
</svg>
