<svg xmlns="http://www.w3.org/2000/svg" viewBox="0 0 63.02 47"><defs><style>.cls-1{fill:#1d1d1b;}.cls-1,.cls-2,.cls-3,.cls-4{stroke:#1d1d1b;stroke-miterlimit:10;}.cls-1,.cls-3{stroke-width:2.5px;}.cls-2,.cls-3{fill:none;}.cls-2,.cls-4{stroke-width:2.33px;}.cls-4{fill:#fff;}</style></defs><g id="Layer_2" data-name="Layer 2"><g id="Layer_1-2" data-name="Layer 1"><g id="Layer_2-2" data-name="Layer 2"><g id="Layer_1-2-2" data-name="Layer 1-2"><path class="cls-1" d="M24.08,32.6l-1.88.09a1,1,0,0,1-1.05-1h0l-.95-20c14.14,2.56,31.24,2.61,41.1-1.57C53.07,48.57,64.64,18.59,24.08,32.6Z"/><path class="cls-2" d="M20.49,33.9l.22-.08c1.16-.44,2.28-.85,3.37-1.22"/><path class="cls-3" d="M20.2,11.74c-.8-.14-1.59-.3-2.37-.46C11.38,10,5.71,8.11,1.87,5.9c7-9,12.7-3.74,16,5.38a56.83,56.83,0,0,1,2.88,22.54,21.88,21.88,0,0,1-1.53,6.63h0l-.14.29a1.55,1.55,0,0,1,.14-.29h0c2.82-5,28.56-5.09,36.73-5.26"/><ellipse class="cls-4" cx="55.26" cy="40.52" rx="3.66" ry="3.75" transform="translate(-1.86 2.67) rotate(-2.72)"/><ellipse class="cls-4" cx="22.37" cy="42.09" rx="3.66" ry="3.75" transform="translate(-1.97 1.11) rotate(-2.72)"/></g></g></g></g></svg>