<svg xmlns="http://www.w3.org/2000/svg" viewBox="0 0 70.93 30.06"><defs><style>.cls-1,.cls-2{fill:#ca9e67;}.cls-2{font-size:18px;font-family:TalkingtotheMoon, Talking to the Moon;}</style></defs><g id="Layer_2" data-name="Layer 2"><g id="Layer_1-2" data-name="Layer 1"><path class="cls-1" d="M7.3,28.64a5.7,5.7,0,0,1-4-2,8.07,8.07,0,0,1-2.1-4.58,10.31,10.31,0,0,1,1.6-8.27,4.26,4.26,0,0,1,3.39-2,5.07,5.07,0,0,1,3.35,1.54l-.36.46A5,5,0,0,0,6.54,13a3,3,0,0,0-2.66,1.46h0a10.79,10.79,0,0,0,0,11c1.17,1.22,2.23,1.84,3.16,1.84h0c1.79,0,3.28-2.32,4.43-6.9a97.35,97.35,0,0,0,1.94-12.3c.19-1.7.34-3,.49-3.83V4.26a4.28,4.28,0,0,0,0-.5,2.62,2.62,0,0,0-.42-.12l-.16,0-.21-.07A29.46,29.46,0,0,0,5.31,1.86,4,4,0,0,0,1.94,3.1c-.8,1-.92,2.72-.36,5.06l.5,2.11L1,8.38A5.2,5.2,0,0,1,5.49.5,5.38,5.38,0,0,1,7.69,1a20.86,20.86,0,0,1,3,.8A15.21,15.21,0,0,0,15,2.71,3.5,3.5,0,0,0,18.22,1L18.51.6l.22.48a1.61,1.61,0,0,1-.08,1.63A3,3,0,0,1,16.22,4a2.34,2.34,0,0,1-.38,0h-.16c-.18,0-.27,0-.34.51h0c-.34,2.05-.57,4.18-.79,6.24C14,15.5,13.47,20.49,11.5,25,10.64,27.36,9.15,28.64,7.3,28.64Z"/><path class="cls-1" d="M5.49.79a5.3,5.3,0,0,1,2.12.46C9.83,1.56,12.65,3,15,3A3.81,3.81,0,0,0,18.47,1.2c.65,1.36-.95,2.45-2.25,2.45a1.83,1.83,0,0,1-.33,0l-.21,0c-.46,0-.56.29-.62.77-1.14,6.85-1,14.09-3.83,20.54-.9,2.44-2.39,3.42-3.93,3.42-2.65,0-5.47-2.91-5.8-6.31-1.1-3.74,1.09-9.88,4.7-9.88A4.78,4.78,0,0,1,9.35,13.6a5.33,5.33,0,0,0-2.81-.87,3.26,3.26,0,0,0-2.91,1.6,11,11,0,0,0,.06,11.39c1.29,1.37,2.41,2,3.39,2,5.57,0,6.38-19.31,7.15-23.29.11-.92.14-.86-.74-1.07-2.43-.75-5.62-1.75-8.17-1.75-3.1,0-5.27,1.47-4,6.66A4.9,4.9,0,0,1,5.49.79M18.55,0,18,.88A3.24,3.24,0,0,1,15,2.42a15.26,15.26,0,0,1-4.22-.93A20.43,20.43,0,0,0,7.77.68,5.69,5.69,0,0,0,5.49.2,5.5,5.5,0,0,0,.78,8.52L2.87,12.3l-1-4.2c-.54-2.26-.44-3.88.3-4.82A3.77,3.77,0,0,1,5.32,2.16a29.58,29.58,0,0,1,7.8,1.66l.2.06h0l.15,0,.19,0,0,.25V4.3c-.16.8-.31,2.15-.5,3.85a96.57,96.57,0,0,1-1.92,12.26,18.6,18.6,0,0,1-1.83,4.9c-.71,1.18-1.5,1.78-2.32,1.78a4.49,4.49,0,0,1-2.92-1.73,10.49,10.49,0,0,1,0-10.71h0a2.66,2.66,0,0,1,2.4-1.32A4.82,4.82,0,0,1,9,14.1l.71-.93A5.3,5.3,0,0,0,6.2,11.56a4.57,4.57,0,0,0-3.63,2.08A10.68,10.68,0,0,0,.92,22.15,8.32,8.32,0,0,0,3.1,26.87a6,6,0,0,0,4.2,2.07c1.15,0,3.25-.5,4.48-3.8,2-4.58,2.53-9.59,3.06-14.44.23-2,.46-4.18.8-6.22h0v0a1.31,1.31,0,0,1,0-.25h.11a3,3,0,0,0,.42,0A3.27,3.27,0,0,0,18.9,2.87,1.94,1.94,0,0,0,19,1L18.55,0Z"/><path class="cls-1" d="M41.56,25.71a1.62,1.62,0,0,1-1.3-.63C38.46,22.85,40,15,41.67,7.1c.24-1.14.46-2.13.59-2.85l0-.08,0-.06c.42-.64.71-.88,1-.88a.51.51,0,0,1,.41.2c.39.48.22,2-.75,6.45-.14.66-.26,1.23-.28,1.39v0h0c-.47,2.75-.89,5.56-1.29,8.28-.08.5-.16,1-.23,1.52-.23,2.19,0,2.84.2,3a.24.24,0,0,0,.21.09c.56,0,1.66-.95,2.62-1.8a10.28,10.28,0,0,1,3-2.12l1.26-.39-.85,1c-2.72,3.22-4.71,4.79-6.1,4.79Z"/><path class="cls-1" d="M43.34,3.61c.82,0-.93,6.87-1,7.62-.55,3.27-1,6.55-1.52,9.82-.27,2.66.09,3.56.79,3.56,1.37,0,4-3.41,5.76-3.94-2.8,3.32-4.64,4.65-5.8,4.65-4,0,.17-16.18,1.09-21,.32-.49.55-.71.69-.71m0-.77h0c-.54,0-.92.42-1.34,1.06L41.91,4l0,.15c-.13.72-.35,1.7-.59,2.84-.61,2.84-1.45,6.72-1.91,10.17-.57,4.36-.39,6.94.58,8.13a2,2,0,0,0,1.6.78c1.53,0,3.56-1.57,6.39-4.93l1.7-2-2.52.78A10.5,10.5,0,0,0,44,22.13c-.54.48-1.06.93-1.52,1.26a2.58,2.58,0,0,1-.79.44,5.77,5.77,0,0,1-.08-2.68c.08-.51.15-1,.23-1.51.4-2.72.82-5.53,1.29-8.28v0c0-.14.14-.75.27-1.35,1-4.77,1.17-6.16.67-6.78a.89.89,0,0,0-.71-.34Z"/><text class="cls-2" transform="translate(17.14 20.69)">oão</text><text class="cls-2" transform="translate(49.98 20.32)">ina</text></g></g></svg>